HIERARCHY
ROOT Hips
{
  OFFSET 2.26061 22.2878 23.7974
  CHANNELS 6 Xposition Yposition Zposition Zrotation Xrotation Yrotation
  JOINT LeftUpLeg
  {
    OFFSET 8.64259 1.95398 -2.38835
    CHANNELS 3 Zrotation Xrotation Yrotation
    JOINT LeftLeg
    {
      OFFSET 43.7702 0 0
      CHANNELS 3 Zrotation Xrotation Yrotation
      JOINT LeftFoot
      {
        OFFSET 40.6238 0 0
        CHANNELS 3 Zrotation Xrotation Yrotation
        JOINT LeftToeBase
        {
          OFFSET 12.7242 0 0
          CHANNELS 3 Zrotation Xrotation Yrotation
          End Site
          {
            OFFSET 0 0 0
          }
        }
      }
    }
  }
  JOINT RightUpLeg
  {
    OFFSET -8.2249 1.95398 -2.59336
    CHANNELS 3 Zrotation Xrotation Yrotation
    JOINT RightLeg
    {
      OFFSET 43.5653 0 0
      CHANNELS 3 Zrotation Xrotation Yrotation
      JOINT RightFoot
      {
        OFFSET 40.6238 0 0
        CHANNELS 3 Zrotation Xrotation Yrotation
        JOINT RightToeBase
        {
          OFFSET 12.7242 0 0
          CHANNELS 3 Zrotation Xrotation Yrotation
          End Site
          {
            OFFSET 0 0 0
          }
        }
      }
    }
  }
  JOINT Spine
  {
    OFFSET 0.165834 0.87714 6.61349
    CHANNELS 3 Zrotation Xrotation Yrotation
    JOINT Spine1
    {
      OFFSET 7.38963 1.71661e-005 0
      CHANNELS 3 Zrotation Xrotation Yrotation
      JOINT Spine2
      {
        OFFSET 11.9445 1.14441e-005 0
        CHANNELS 3 Zrotation Xrotation Yrotation
        JOINT Spine3
        {
          OFFSET 14.7254 4.19617e-005 0
          CHANNELS 3 Zrotation Xrotation Yrotation
          JOINT Spine4
          {
            OFFSET 10.9679 0 0
            CHANNELS 3 Zrotation Xrotation Yrotation
            JOINT RightShoulder
            {
              OFFSET 2.46616 -1.6653 3.69651
              CHANNELS 3 Zrotation Xrotation Yrotation
              JOINT RightArm
              {
                OFFSET 13.0012 0 0
                CHANNELS 3 Zrotation Xrotation Yrotation
                JOINT RightForeArm
                {
                  OFFSET 28.7848 1.52588e-005 0
                  CHANNELS 3 Zrotation Xrotation Yrotation
                  JOINT RightHand
                  {
                    OFFSET 26.5688 1.52588e-005 0
                    CHANNELS 3 Zrotation Xrotation Yrotation
                    End Site
                    {
                      OFFSET 0 0 0
                    }
                  }
                }
              }
            }
            JOINT LeftShoulder
            {
              OFFSET 2.38034 -1.29275 -3.7523
              CHANNELS 3 Zrotation Xrotation Yrotation
              JOINT LeftArm
              {
                OFFSET 16.3182 6.10351e-005 0
                CHANNELS 3 Zrotation Xrotation Yrotation
                JOINT LeftForeArm
                {
                  OFFSET 27.0901 0 0
                  CHANNELS 3 Zrotation Xrotation Yrotation
                  JOINT LeftHand
                  {
                    OFFSET 24.5451 1.52588e-005 0
                    CHANNELS 3 Zrotation Xrotation Yrotation
                    End Site
                    {
                      OFFSET 0 0 0
                    }
                  }
                }
              }
            }
            JOINT Neck
            {
              OFFSET 5.0226 -0.0266342 0
              CHANNELS 3 Zrotation Xrotation Yrotation
              JOINT Head
              {
                OFFSET 6.69363 2.86102e-005 0
                CHANNELS 3 Zrotation Xrotation Yrotation
                End Site
                {
                  OFFSET 0 0 0
                }
              }
            }
          }
        }
      }
    }
  }
}
MOTION
Frames:	17
Frame Time:	0.0416667
-251.59 95.6079 -233.965 63.6962 -45.8121 68.9523 -169.27 43.4063 86.9644 -10.1315 7.79935 -5.78718 36.7075 -13.0557 -10.9102 38.142 7.74859 11.6176 167.578 70.0359 102.554 -71.3223 -27.2801 -4.0961 82.4622 -11.2651 -8.19858 52.2799 54.7115 143.502 1.03049 5.78136 -89.3431 15.3032 2.36559 0.961002 3.63408 2.40561 0.855908 -18.9111 1.96741 1.62769 1.10158 1.96744 1.6277 94.6321 -48.3975 -93.9305 26.1359 -12.9645 17.1288 -26.8577 -12.7029 -98.1168 -31.7612 5.67251 -23.1739 -93.4621 -50.2158 73.6357 -41.2713 12.7063 43.208 4.82445 -0.682766 -76.4903 39.7178 1.60359 0.0311279 1.83173 -1.94376 0.834927 5.88256 -2.14812 -1.42912 
-245.772 91.4606 -228.657 72.4761 -54.0381 72.5375 -164.891 39.4896 86.7954 -29.1224 15.3918 -9.7569 51.5557 -6.47159 -0.00408721 32.3944 2.69781 3.43133 -176.426 64.3912 92.1003 -91.9415 -21.3185 -4.79115 92.668 -20.6475 -7.029 43.0309 35.9664 153.018 1.5523 6.58298 -88.9402 13.6826 3.59302 1.64647 2.01582 3.66195 1.48658 -20.5402 2.93212 2.65064 -0.527508 2.9321 2.65063 95.766 -50.4373 -91.8797 28.0036 -19.3805 19.2357 -17.4662 -10.1393 -87.5495 -33.9328 3.10554 -13.4998 -95.7221 -51.6937 70.7528 -35.9559 13.6875 38.7335 4.62646 -0.321067 -75.7129 43.4022 1.92843 0.410887 1.17948 -1.53544 -1.28605 6.33741 -1.40161 -0.487808 
-237.735 88.8677 -221.977 79.7815 -50.9411 78.6967 -164.744 35.9062 83.9124 -44.9602 15.1529 -8.62007 65.9651 6.40002 7.6579 31.3045 2.13346 -2.10451 -176.6 50.5715 88.967 -105.785 -11.5699 -2.7902 104.105 -28.2307 -4.57761 28.2523 -33.3047 155.817 0.813858 7.0825 -88.8498 12.6836 2.16493 2.0426 1.01271 2.25269 1.94536 -21.5146 1.45125 2.59851 -1.50193 1.45123 2.59849 95.562 -52.1293 -91.9791 28.7937 -21.6384 20.1727 -13.1118 -9.88145 -81.1327 -29.5819 -1.09579 -0.531716 -98.258 -53.2839 67.6301 -28.6306 14.023 31.9427 3.94055 -0.566816 -75.2828 40.9442 2.11044 1.15686 2.96845 -0.534107 -3.91242 6.5885 0.116299 0.945687 
-229.678 87.885 -215.856 87.1295 -42.8013 84.1421 -169.511 27.8593 81.293 -51.3634 16.1615 -4.29905 69.9767 11.8373 10.893 38.3749 7.57604 1.32101 175.451 41.4107 90.0951 -112.521 -1.86806 -2.1054 81.0189 -16.3463 -6.5967 -80.6475 -25.8382 6.69333 -0.358791 7.82719 -88.8021 11.2148 -0.157081 2.39591 -0.458354 -0.0515162 2.4005 -22.9774 -0.869718 2.2381 -2.96475 -0.869724 2.2381 95.503 -53.2654 -91.9302 27.5647 -20.3105 19.9965 -9.88471 -14.3398 -71.0251 -33.9821 -0.494794 -2.6605 -101.515 -52.2319 62.6691 -21.6918 15.0099 21.4569 3.05709 -0.0847161 -71.9195 42.4786 1.71027 -0.00597599 7.45673 -0.330386 -5.838 4.3907 0.813735 1.41479 
-221.489 89.135 -208.955 87.7388 -41.2649 86.536 -171.197 19.8095 83.8711 -49.9851 18.7103 -2.67541 68.522 11.4267 12.2974 45.2544 13.3189 3.31926 174.981 45.5863 91.9625 -105.331 6.30289 -1.89616 43.5187 -1.02182 -0.58582 28.4103 0.666768 -10.1359 -0.704904 7.83322 -89.0786 11.2124 -0.974406 1.92999 -0.459717 -0.888539 1.97098 -22.9898 -1.50932 1.54805 -2.97711 -1.50933 1.54803 96.0494 -54.8503 -90.9411 25.5638 -20.395 24.3647 -9.52695 -16.9718 -67.2134 -33.3188 -0.396673 -2.81182 -100.641 -51.3695 63.5907 -19.2626 14.4413 15.633 6.19026 -0.233368 -76.2598 40.5129 2.38626 1.93069 5.84276 0.260334 -6.65802 4.9572 1.55456 2.69498 
-212.74 92.2232 -201.377 88.2353 -40.4361 88.7589 -172.672 10.4622 87.3646 -44.0493 21.3262 -0.848097 61.6323 3.53768 5.32661 49.2881 17.2618 6.53684 175.674 45.1267 93.1456 -88.7442 4.43218 -1.47328 48.5021 -0.424951 -0.0935824 30.8476 0.325914 -4.62858 -0.987674 7.71834 -89.3888 11.4465 -1.67956 1.38731 -0.224233 -1.61689 1.45988 -22.7654 -2.01884 0.818302 -2.75277 -2.01884 0.818303 96.8248 -55.7617 -89.7218 24.756 -20.864 30.2373 -10.5616 -18.4948 -66.361 -24.7034 -0.861673 -0.33126 -98.5276 -50.2128 66.214 -20.3018 13.6698 12.8782 9.80469 -0.906489 -82.6087 40.5402 2.67512 2.6634 3.31801 1.01908 -7.71596 5.16292 2.48096 4.70322 
-203.984 94.9638 -193.247 88.5891 -38.9054 89.0253 -173.627 1.30682 88.9372 -36.3783 26.1711 0.81811 49.0596 -6.50728 -3.06499 46.5457 15.6021 10.9773 176.14 41.5827 92.5713 -66.9523 -2.03941 -1.11795 51.9954 0.771656 0.7617 32.9977 0.620473 -12.5218 -1.37284 7.57127 -89.6042 11.745 -2.54446 1.05756 0.0760698 -2.49544 1.16858 -22.4787 -2.74459 0.24343 -2.46609 -2.74458 0.243447 96.4035 -54.1118 -90.4996 25.823 -19.2398 35.8941 -13.6145 -20.7089 -65.2797 -27.5925 -0.179856 -3.31716 -97.2555 -49.5044 67.8333 -22.7366 13.9579 12.0326 11.3103 -2.76477 -88.0767 39.0661 2.50035 2.47856 1.77519 1.84202 -6.76114 4.92537 3.11932 5.63101 
-195.164 96.604 -184.837 86.9487 -38.5453 88.7642 -173.082 -3.43987 92.7149 -31.4361 29.1295 1.91715 38.8619 -12.8919 -8.56862 31.5104 1.76288 6.54797 176.206 36.0837 93.0861 -38.3129 -0.313293 -0.22099 49.1518 2.30333 2.09837 34.7206 0.408531 -9.35072 -1.54819 7.25831 -89.8446 12.3703 -3.00256 0.652543 0.702585 -2.97093 0.784172 -21.8606 -3.05974 -0.280884 -1.84794 -3.05972 -0.280883 97.3673 -53.7409 -89.1089 25.7376 -18.7896 40.7422 -14.0124 -20.4792 -64.7033 -23.3303 -0.317835 -2.73185 -96.5814 -48.7937 68.5938 -25.0078 15.3281 13.4478 10.1546 -4.64462 -93.741 38.8414 1.61951 0.160245 2.09459 2.1518 -7.67733 3.04537 3.59342 7.46561 
-186.41 97.1028 -176.557 85.4091 -35.8576 86.9059 -173.25 -5.30883 93.6142 -33.5721 24.1932 2.94186 33.2732 -15.8459 -10.3348 23.483 -5.92216 9.05004 175.187 29.0518 91.2572 -8.60665 -0.619156 0.687737 40.4559 4.72009 4.78106 32.2202 0.499804 -9.56572 -1.98936 7.03727 -89.9381 12.8171 -3.92089 0.592654 1.15182 -3.89101 0.764884 -21.4304 -3.91746 -0.615001 -1.41772 -3.91745 -0.615005 97.9016 -52.143 -88.444 26.1732 -17.8467 43.68 -15.0665 -20.6471 -64.0978 -22.8678 -0.0387368 -4.02016 -96.8224 -48.496 68.138 -25.9153 16.49 14.5892 13.7295 -6.78651 -99.7564 36.4168 2.29735 2.40574 5.76146 2.17716 -7.38637 -0.0286736 3.6278 8.06696 
-177.973 96.2976 -168.279 86.1962 -34.5522 85.3598 -172.679 -5.97873 93.8344 -41.1131 16.3098 2.8447 39.5386 -12.2333 -6.71688 23.9253 -5.56279 9.31571 173.981 27.7719 89.6547 -3.7085 3.2918 1.43804 37.9773 5.49829 5.75432 31.8889 0.404406 -6.39361 -2.19791 6.95337 -89.8316 12.9924 -4.28267 0.858873 1.32806 -4.24072 1.04684 -21.2637 -4.34243 -0.470423 -1.25103 -4.34243 -0.470432 97.7149 -51.8944 -88.7476 25.494 -15.6538 44.9841 -11.5698 -18.0704 -62.806 -18.3923 -0.107129 -4.16 -96.8588 -47.4941 67.7479 -27.1843 18.1409 15.2972 14.05 -7.06027 -99.3428 34.8243 1.90319 1.56315 6.86247 2.23915 -5.52615 -1.2137 3.33206 7.15593 
-170.296 93.4014 -161.296 89.3035 -37.4676 85.9362 -171.47 -4.14583 92.9301 -54.8059 9.44018 1.69117 41.9365 -10.904 -2.80953 26.0997 -2.80732 4.76052 173.203 29.5684 90.2211 -19.8478 -0.0757298 1.95817 47.0877 2.90875 3.05754 25.3259 0.12058 -3.93531 -1.90476 7.10689 -89.7574 12.6801 -3.66714 0.921729 1.01383 -3.62303 1.08243 -21.5628 -3.77441 -0.224589 -1.55016 -3.77441 -0.224586 98.1812 -52.5825 -87.988 22.9919 -15.2177 41.5844 -5.47311 -15.7934 -60.0186 -14.0213 -0.263913 -3.26139 -97.8188 -47.5783 66.3393 -27.9736 18.8872 16.3392 11.6612 -5.01105 -91.9839 35.9101 1.62835 0.578812 5.12663 2.39968 -2.84858 -0.0967943 3.02791 6.14394 
-163.004 90.1125 -155.5 93.4373 -40.3204 91.2233 -169.826 0.775574 95.228 -70.3893 7.09348 1.3881 43.0227 -9.65233 -0.176424 30.7516 1.25133 4.00693 173.806 30.0228 94.514 -40.6463 -0.35215 1.65727 67.1502 -3.28652 -1.812 25.6819 0.206503 -4.21005 -1.49902 7.55412 -90.117 11.772 -3.03632 0.0841682 0.104567 -3.02966 0.217833 -22.4578 -2.9211 -0.833062 -2.44511 -2.92111 -0.833065 97.3494 -53.4502 -89.1616 20.2773 -14.2899 33.6985 -13.1078 -21.7391 -59.0689 -18.0176 -0.526081 -1.51437 -100.155 -49.4758 63.5877 -27.1814 17.134 16.6758 11.1312 -2.58611 -82.3776 34.5275 1.63313 0.803326 3.02156 2.12321 -0.175343 2.64305 2.40287 4.80966 
-156.077 88.2418 -150.004 94.1799 -42.5311 96.5061 -169.887 12.1872 97.7592 -81.7688 4.70059 1.80701 45.8812 -6.52126 0.265069 36.3765 6.00634 4.94482 175.472 27.8155 100.119 -49.7537 3.40163 1.19649 76.6401 -7.3503 -3.4236 28.0676 0.168943 -2.89622 -0.907435 7.94674 -90.8581 10.9646 -2.20376 -1.49772 -0.705213 -2.26752 -1.39927 -23.2428 -1.65184 -2.09075 -3.23017 -1.65183 -2.09076 94.8993 -54.5619 -92.6592 17.6401 -13.1628 21.823 -10.4516 -21.8522 -55.6203 -18.9354 -0.736617 -0.401238 -103.714 -53.8479 60.2347 -24.4523 15.1744 13.5664 8.44577 3.1594 -66.6162 37.1967 2.53278 2.914 4.67566 1.46004 4.08076 3.04317 0.965531 2.46106 
-150.014 87.9244 -144.081 93.7966 -45.1214 92.913 -170.25 21.8036 92.4487 -82.9732 2.9484 1.16698 50.2766 -2.47407 3.53719 43.7571 12.3905 6.06111 176.666 24.4876 97.9404 -54.3424 3.21962 -0.939433 82.2479 -9.69136 -3.99395 32.5329 0.289531 -3.2872 -0.430894 7.95466 -90.4206 10.9582 -1.05244 -0.736717 -0.712458 -1.08385 -0.689689 -23.248 -0.782379 -1.01895 -3.23531 -0.782383 -1.01896 94.6616 -53.9733 -93.0861 18.6551 -12.0815 12.1243 -15.5761 -24.4875 -59.8428 -21.2786 -0.943264 0.619775 -101.905 -53.0642 62.4375 -27.4733 16.0393 15.1075 2.9024 4.79595 -51.7785 35.3912 2.13175 2.11636 3.94739 0.411788 3.96148 4.43766 0.00315056 2.40223 
-143.704 89.4982 -137.794 89.7912 -45.9844 89.126 -172.181 31.0749 90.1802 -74.4545 -0.66265 1.18654 57.6694 2.469 6.06099 45.6365 13.4383 1.89883 177.284 19.5804 96.8251 -51.0145 2.87017 -1.86992 81.8402 -9.74596 -4.04634 37.3704 0.414838 -2.65229 0.00582358 7.78244 -90.2769 11.3099 -0.11745 -0.54161 -0.361173 -0.141168 -0.535934 -22.8956 0.0507495 -0.551877 -2.88292 0.0507618 -0.551874 95.331 -51.5161 -92.4085 22.5559 -13.9409 5.28234 -15.7249 -17.9446 -67.3693 -21.9157 -0.696696 -0.895818 -101.949 -53.3992 62.5021 -29.7552 17.1553 22.3243 3.13243 5.54472 -52.5464 35.9406 2.9069 4.24693 5.1388 -0.806122 4.01089 4.96666 -1.2899 1.68284 
-136.978 92.1604 -131.346 88.1859 -47.7311 85.9159 -172.641 33.2916 88.501 -56.4676 0.762087 -0.0317686 58.8977 1.74316 4.2256 44.3656 14.1784 15.1666 177.366 12.794 93.7527 -46.4332 -2.34301 -3.61084 75.621 -7.16536 -3.40871 42.7249 0.530649 -2.72598 0.587069 7.717 -89.9853 11.4412 1.175 -0.0892408 -0.229199 1.16993 -0.140879 -22.7684 1.14748 0.268065 -2.75576 1.14749 0.268073 95.1086 -50.2422 -92.9207 24.0884 -15.3813 1.96963 -16.2814 -12.7387 -76.023 -21.6261 -0.314876 -2.94893 -99.6057 -52.5534 65.4811 -33.264 20.41 28.4447 3.41081 6.89462 -53.051 36.0207 2.93677 4.30991 3.51534 -2.60251 4.69341 6.55092 -3.25966 -0.288991 
-129.475 94.9955 -125.036 87.0988 -49.9721 84.2096 -172.598 29.9772 89.087 -29.7843 5.06257 -1.65721 50.3458 -5.46913 -4.14529 42.5732 12.8962 19.4131 176.182 6.95064 90.3842 -42.2176 -9.15062 -5.04443 63.6687 -2.32154 -1.28745 47.9703 0.766054 -1.87379 1.18394 7.69412 -89.807 11.4864 2.44577 0.135036 -0.182241 2.44933 0.0271884 -22.7341 2.29206 0.86423 -2.72146 2.29205 0.864223 95.1186 -49.3395 -93.0298 24.2264 -17.251 0.0500348 -19.7795 -8.70191 -85.0161 -24.3917 -0.454129 -2.32862 -97.0003 -50.9219 68.6661 -37.2923 20.2385 34.2943 4.53902 7.20158 -54.428 35.0243 2.86234 4.3396 2.74846 -4.19666 4.94871 6.53877 -4.93715 -1.4032 
